<?xml version="1.0" encoding="utf-8"?>
<!-- Generator: Adobe Illustrator 18.0.0, SVG Export Plug-In . SVG Version: 6.00 Build 0)  -->
<!DOCTYPE svg PUBLIC "-//W3C//DTD SVG 1.1//EN" "http://www.w3.org/Graphics/SVG/1.1/DTD/svg11.dtd">
<svg version="1.1" id="Layer_1" xmlns="http://www.w3.org/2000/svg" xmlns:xlink="http://www.w3.org/1999/xlink" x="0px" y="0px"
	 viewBox="0 0 1866.5 1007.7" enable-background="new 0 0 1866.5 1007.7" xml:space="preserve">
<g>
	<g>
		<path fill="none" stroke="#FF7A03" stroke-width="0.6521" stroke-miterlimit="10" d="M916.9,661.6h-6v-0.8
			c0.8,0.1,1.6,0.2,2.4,0.3C914.5,661.4,915.7,661.5,916.9,661.6z"/>
		<path fill="#254472" d="M855.4,661.6h-135c-29.2,0-52.9-23.7-52.9-52.9V412.7h-46.3c-21.9,0-31.7-27.6-14.7-41.4l96.1-78.1V184.6
			c0-9.8,7.9-17.7,17.7-17.7h79.4c9.8,0,17.7,7.9,17.7,17.7v15.8l81-65.4c15.7-12.7,38-12.9,54-0.6l105.4,81.4l-30.6,25.3
			l-100.6-77.5l-109.2,86.9L780.3,280V203h-39.4v108.5l-38.3,30.5l-43.4,34.5h27.5c10.5,0,19,8.5,19,19v208.9c0,10.5,8.5,19,19,19
			h79C815.8,637.1,832.5,651.2,855.4,661.6z"/>
		
			<line fill="none" stroke="#00FF50" stroke-width="0.9687" stroke-miterlimit="10" x1="1057.8" y1="215.8" x2="1027.2" y2="241.1"/>
		
			<line fill="none" stroke="#00FF50" stroke-width="0.9687" stroke-miterlimit="10" x1="1116.6" y1="261.2" x2="1087.7" y2="287.8"/>
		<linearGradient id="SVGID_1_" gradientUnits="userSpaceOnUse" x1="828.7349" y1="772.632" x2="1193.7408" y2="370.9323">
			<stop  offset="0" style="stop-color:#26436F"/>
			<stop  offset="0.9949" style="stop-color:#188998"/>
		</linearGradient>
		<path fill="url(#SVGID_1_)" d="M1245.9,412.7h-46.5v195.9c0,29.3-23.7,53-53,53H916.9c-1.2-0.1-2.4-0.3-3.6-0.4
			c-0.8-0.1-1.6-0.2-2.4-0.3c-1.2-0.2-2.4-0.3-3.6-0.5c-1-0.2-2.1-0.3-3.1-0.5c-0.4-0.1-0.7-0.1-1.1-0.2c-0.8-0.1-1.6-0.3-2.3-0.4
			c-0.4-0.1-0.8-0.1-1.2-0.2c-0.9-0.2-1.7-0.3-2.6-0.5c-0.1,0-0.3,0-0.4-0.1c-1-0.2-2-0.4-3-0.7c-0.2,0-0.4-0.1-0.6-0.1
			c-0.9-0.2-1.7-0.4-2.6-0.6c-0.3-0.1-0.6-0.2-0.9-0.2c-0.8-0.2-1.7-0.4-2.5-0.7c-0.2,0-0.3-0.1-0.5-0.1c-0.9-0.3-1.9-0.5-2.8-0.8
			c-0.1,0-0.1,0-0.2,0c-1-0.3-2-0.6-3-0.9c-4.4-1.4-8.7-2.9-12.7-4.5c-1.8-0.7-3.5-1.4-5.2-2.2c-0.9-0.4-1.8-0.8-2.7-1.2
			c-2.1-1-4.2-2-6.2-3.1c-0.5-0.3-1-0.5-1.6-0.8c-0.4-0.2-0.8-0.4-1.2-0.6c-0.5-0.3-1-0.6-1.6-0.9c-0.2-0.1-0.5-0.3-0.7-0.4
			c-0.5-0.3-1-0.6-1.5-0.9c-0.4-0.2-0.8-0.5-1.2-0.7c-0.5-0.3-1.1-0.6-1.6-1c-0.1-0.1-0.3-0.2-0.4-0.3c-0.6-0.4-1.2-0.7-1.7-1.1
			c-0.7-0.4-1.4-0.9-2.1-1.3c-0.4-0.3-0.9-0.6-1.3-0.9c-0.6-0.4-1.3-0.8-1.9-1.3c-0.5-0.3-1-0.7-1.5-1c-1-0.7-1.9-1.4-2.8-2.1
			c-0.7-0.5-1.4-1-2-1.5c-2.1-1.6-4.1-3.3-6.1-5c-24.5-21.2-36.1-45.2-40.5-56.6c-1.6-4.2-2.3-6.7-2.3-6.7l9.4-9.2l16.2,7.6
			c5.3,7.5,18.8,6.9,18.8,6.9c26.4,57.3,90.8,57.9,90.8,57.9h225.3c10.5,0,18.9-8.5,18.9-18.9v-214c0-7.7,6.2-14,14-14h27.7
			l-115-88.7l28.8-26.6l143.2,110.6C1277,385.1,1267.6,412.7,1245.9,412.7z"/>
		<path fill="#1A8D93" d="M1128.6,457.4v142.5c0,4.4-3.6,8-8,8h-13V458.2c0-17.1-13.5-31.4-30.5-31.8c-15.2-0.3-28,10.2-31.2,24.4
			c19.7,4.2,34.9,18.8,38.5,37.1H983.9c3.7-19,20-34,40.8-37.6c3.4-25.5,25.3-45.1,51.7-45.1c14.4,0,27.4,5.8,36.9,15.3
			C1122.8,429.9,1128.6,443,1128.6,457.4z"/>
		<linearGradient id="SVGID_2_" gradientUnits="userSpaceOnUse" x1="714.4342" y1="695.8488" x2="1147.0338" y2="85.5742">
			<stop  offset="0" style="stop-color:#26436F"/>
			<stop  offset="0.9949" style="stop-color:#188998"/>
		</linearGradient>
		<path fill="url(#SVGID_2_)" d="M966.4,415.4c0,0,80.1-143.9,273.9-276.5c0,0-148.1,32.2-281.3,199.6l-65-65.3l-38.3,38.6
			C855.6,311.8,915.5,362,966.4,415.4z"/>
		<path fill="#1A8D93" d="M955.8,469.2c-1.6-8.7-5.3-25.4-12.3-38c0,0-3.1-8.7,3-15.7L936,400.8c0,0-10,13.9-11,24.1l0.5,97
			c0,1.8-1.4,3.2-3.2,3.2h-86.1c0,0,0.3,2.9,2.7,2.9c0,0-1.1,26.7,21.9,41.3c16.1,10.2,36.8,10.8,52.9,0.6c5.2-3.3,10.3-8,14.8-14.5
			c5.3-7.8,8-17.1,8-26.6v-79.4c0,0-0.8-4.7,4.8-4l12.6,24.3C954.5,470.7,956,470.2,955.8,469.2z M855,549.5
			c-5.2-8.7-4.8-13.4-2.5-15.9c3.3,4.7,14.9,20,31.3,29.9C883.7,563.5,867.3,570.1,855,549.5z"/>
		<path fill="#1A8D93" d="M1060.8,540.8l-18.9-14.4c-1.4-1.9-1.4-3.8-1.1-5.2c0.4-1.6,2-2.6,3.6-2.3c7.1,1.4,11.4,1.4,13.7,1.2
			c1.3-0.1,2.7,0,4,0.3c6.6,1.2,6.7-4.3,6.2-7.7c-0.3-2.2-2-3.9-4.1-4.3c-1.9-0.3-4.7-0.3-8.8,0.5c-10.1,2.2-16.2,1.3-16.2,1.3v-2.4
			c0-0.7-0.6-1.3-1.3-1.3h-3.2c-0.6,0-1.1,0.5-1.1,1.1v2.8h-27.2v10.5h25.3v4.3l-15.3,15.5h-21.1c0,0-29.1,1.4-32.5,44.4
			c0,0-3.8,0.8-3.8,3.5v5.9c0,1,0.8,1.8,1.8,1.8H989c0.9,0,1.7-0.8,1.7-1.7V587c0-1.1-0.1-2.1-0.4-3.2c-1-4.1-2.8-15.9,9.6-15.9
			c15.1,0,14.5,1.4,14.5,1.4s11.4,9.4,23.7,8.8c12.3-0.6,24.4-11.5,24.4-11.5h31.9v-26H1060.8z"/>
		<path fill="#254472" d="M911.5,411.7c-0.7-2.2-2-4.2-3.6-5.8c-1.6-1.8-3.4-3.4-5.1-5.1L885,387.6l-0.4-0.3l-19-14
			c-6.7-4.9-15.6-4.2-21.4,1c-1.4,1.2-2.6,2.7-3.5,4.4l-1.6,2.9l-25.2,45.8c-1.6,3-1.7,6.6-0.1,9.7c7.3,14.2,5,25.6,3.4,30.3
			c-0.4,1.3-1.1,2.6-2,3.7l-8.6,11.5c-0.7,0.9-1.7,1.6-2.8,2l-7.6,2.4c-1.3,0.4-2.4,1.2-3.2,2.3l-25.2,33.4l-0.9,1.2
			c-8.4-14.1-13.2-30.5-13.2-48c0-44,30.4-81,71.6-91.7l5.3-10.4c-54.5,1.7-98.1,46.5-98.1,101.3c0,24.4,8.6,46.8,23,64.3l-0.1,0.1
			L742.9,550c-5.9,4.8-6.5,13.5-1.4,19.1l0.5,0.6c6.8,7.5,18.7,6.8,24.6-1.4l7.9-11l9.1-12.6l31.7-44c0.6-0.8,0.9-1.9,0.8-2.9
			l-0.2-2.4c-0.1-1.6,0.4-3.2,1.5-4.5l17.1-20.2c1.9-2.2,4.7-3.5,7.7-3.3l23.1,1.5c1.9,0.1,3.7-0.6,5-2l2.5-2.8l8.5-8.8
			c8.5-10.4,19.9-20.4,26.4-25.8c0.1,0,0.1-0.1,0.2-0.1c0.4-0.3,0.7-0.6,1-0.8c1.5-1.4,2.3-2.5,2.7-3.2c0.2-0.5,0.3-0.8,0.3-1.1v0
			C913.2,419.4,912.6,415.1,911.5,411.7z M832.3,430.7c-0.4,0.5-1,0.6-1.5,0.2l-2.7-2.2c-0.4-0.3-0.5-1-0.2-1.4l25.9-34.8
			c1.5-2,4.3-2.4,6.3-0.8c0.4,0.4,0.5,1,0.2,1.4L832.3,430.7z M844.4,439.2c-0.6-0.5-0.7-1.4-0.2-2.1l29.4-36.8
			c0.5-0.6,1.4-0.7,2.1-0.2l2,1.6c0.6,0.5,0.7,1.4,0.2,2.1l-27.7,34.8C848.7,440.4,846.2,440.6,844.4,439.2z M893.6,415.8
			l-28.3,35.5c-1.3,1.6-3.6,1.8-5.2,0.6l-0.8-0.6c-0.4-0.3-0.5-0.9-0.1-1.3l30-37.7c0.3-0.4,0.9-0.5,1.3-0.2l2.9,2.3
			C893.8,414.9,893.9,415.4,893.6,415.8z"/>
	</g>
	<g>
		<g>
			<path fill="#254472" d="M218.8,803.6c-9.6,0-16.4,7.4-16.4,18.5c0,11.2,6.8,18.7,16.4,18.7c7.1,0,12.6-2.7,16.1-8.1l13.6,9.2
				c-5.8,9.6-16.6,15.3-30.7,15.3c-20.9,0-35.2-14.1-35.2-35.1c0-21.2,14.3-35.4,35.4-35.4c13.2,0,23.8,5.3,29.9,14.5l-13.4,9.6
				C230.8,806.3,225.6,803.5,218.8,803.6z"/>
			<path fill="#254472" d="M328,822c0,21.1-14.9,35.3-37,35.3c-22.2,0-37.1-14.3-37.1-35.3c0-21.2,14.9-35.2,37.1-35.2
				C313.1,786.8,328,800.8,328,822z M273.7,822.2c0,11.3,7.1,19,17.3,19c10.1,0,17.2-7.7,17.2-19c0-11.3-7.1-19-17.2-19
				C280.7,803.2,273.7,810.9,273.7,822.2z"/>
			<path fill="#254472" d="M458.7,813.1v43.4H439v-37.6c0-8.9-5.1-14.1-13.4-14.1c-9.5,0.1-15.3,7.6-15.3,17.6v34.2h-19.6v-37.6
				c0-8.9-5.1-14.1-13.2-14.1c-9.6,0.1-15.4,7.6-15.4,17.6v34.2h-19.8v-69.1h19.8v11.9c4.9-8.5,13-12.6,23.4-12.7
				c11.7,0,20,5.9,23.4,15.9c4.5-10.7,13.2-15.8,24.9-15.9C449,786.7,458.7,796.9,458.7,813.1z"/>
			<path fill="#254472" d="M552.7,822.4c0,20.9-12.7,34.9-32.1,34.9c-9.6,0-17.2-3.9-22.2-10.8v34.9h-19.8v-94h19.8v10.1
				c4.9-6.9,12.5-10.8,21.8-10.8C539.6,786.8,552.7,801,552.7,822.4z M532.7,821.7c0-11-6.9-19-17.1-19c-10.1,0-17.2,7.8-17.2,19
				c0,11.4,7.1,19.1,17.2,19.1C525.7,840.9,532.7,833,532.7,821.7z"/>
			<path fill="#254472" d="M586.5,761.2v95.3h-19.8v-95.3H586.5z"/>
			<path fill="#254472" d="M670.1,828h-49.6c2.3,8.7,9,13.9,17.9,13.9c6.5,0,12.7-2.6,17.5-7.3l10.4,10.5
				c-6.9,7.7-17.1,12.2-29.5,12.2c-22.1,0-36.1-14.1-36.1-35.1c0-21.3,14.5-35.4,35.6-35.4C660.4,786.8,671.7,802.8,670.1,828z
				 M651.6,816.3c-0.3-9.1-6.2-15-15.3-15c-8.7,0-14.6,5.9-16.2,15H651.6z"/>
			<path fill="#254472" d="M727.2,852.7c-5.1,3-11.6,4.8-18,4.8c-12.3,0-21.7-7.1-21.7-21.3v-32h-9.6v-13.6h9.6v-19h19.6v19h18.8
				v13.7h-18.8v28.5c0,5.8,2.4,8.1,6.7,8c2.6,0,5.7-0.9,9.2-2.6L727.2,852.7z"/>
			<path fill="#254472" d="M803.4,828h-49.6c2.3,8.7,9,13.9,17.9,13.9c6.5,0,12.7-2.6,17.5-7.3l10.4,10.5
				c-6.9,7.7-17.1,12.2-29.5,12.2c-22.1,0-36.1-14.1-36.1-35.1c0-21.3,14.5-35.4,35.6-35.4C793.7,786.8,805.1,802.8,803.4,828z
				 M784.9,816.3c-0.3-9.1-6.2-15-15.3-15c-8.7,0-14.6,5.9-16.2,15H784.9z"/>
			<path fill="#1A8D93" d="M930.2,813.1v43.4h-19.6v-37.6c0-8.9-5.1-14.1-13.4-14.1c-9.5,0.1-15.3,7.6-15.3,17.6v34.2h-19.6v-37.6
				c0-8.9-5.1-14.1-13.2-14.1c-9.6,0.1-15.4,7.6-15.4,17.6v34.2h-19.8v-69.1h19.8v11.9c4.9-8.5,13-12.6,23.4-12.7
				c11.7,0,20,5.9,23.4,15.9c4.5-10.7,13.2-15.8,24.9-15.9C920.6,786.7,930.2,796.9,930.2,813.1z"/>
			<path fill="#1A8D93" d="M956.4,882.3c-7.3,0-13.1-2.1-18.8-6.7l8.3-14.3c3.1,2.6,5.8,3.7,9,3.7c4.1,0,7.2-2.1,9.1-6.2l1.9-3.9
				l-28.6-67.7h20.4l18.1,47.5l16.3-47.5h19.8l-30.3,76.8C976.8,876.4,968.3,882.3,956.4,882.3z"/>
			<path fill="#1A8D93" d="M1093.7,822.4c0,20.9-12.7,34.9-32.1,34.9c-9.6,0-17.2-3.9-22.2-10.8v34.9h-19.8v-94h19.8v10.1
				c4.9-6.9,12.5-10.8,21.8-10.8C1080.6,786.8,1093.7,801,1093.7,822.4z M1073.6,821.7c0-11-6.9-19-17.1-19
				c-10.1,0-17.2,7.8-17.2,19c0,11.4,7.1,19.1,17.2,19.1C1066.7,840.9,1073.6,833,1073.6,821.7z"/>
			<path fill="#1A8D93" d="M1149.7,786.7v18.6c-14.1-1.3-22.9,6.3-22.9,18v33.3H1107v-69.1h19.8v12.5
				C1131.6,791.4,1139.4,786.8,1149.7,786.7z"/>
			<path fill="#1A8D93" d="M1230.8,822c0,21.1-14.9,35.3-37,35.3c-22.2,0-37.1-14.3-37.1-35.3c0-21.2,14.9-35.2,37.1-35.2
				C1215.9,786.8,1230.8,800.8,1230.8,822z M1176.5,822.2c0,11.3,7.1,19,17.3,19c10.1,0,17.2-7.7,17.2-19c0-11.3-7.1-19-17.2-19
				C1183.6,803.2,1176.5,810.9,1176.5,822.2z"/>
			<path fill="#1A8D93" d="M1239,882.3c-6,0-11.8-1.7-16.3-4.6l5.4-14.5c2.6,1.7,5.5,2.7,8.1,2.7c4.2,0,7.3-2.4,7.3-8.1v-70.4h19.6
				v71.1C1263.1,874.2,1252,882.3,1239,882.3z M1264.7,767.8c0,6.4-4.6,11-11.4,11c-6.5,0-11.4-4.6-11.4-11c0-6.5,4.9-11,11.4-11
				C1260.1,756.7,1264.7,761.2,1264.7,767.8z"/>
			<path fill="#1A8D93" d="M1344.7,828h-49.6c2.3,8.7,9,13.9,17.9,13.9c6.5,0,12.7-2.6,17.5-7.3l10.4,10.5
				c-6.9,7.7-17.1,12.2-29.5,12.2c-22.1,0-36.1-14.1-36.1-35.1c0-21.3,14.5-35.4,35.6-35.4C1335.1,786.8,1346.4,802.8,1344.7,828z
				 M1326.2,816.3c-0.3-9.1-6.2-15-15.3-15c-8.7,0-14.6,5.9-16.2,15H1326.2z"/>
			<path fill="#1A8D93" d="M1386.4,803.6c-9.6,0-16.4,7.4-16.4,18.5c0,11.2,6.8,18.7,16.4,18.7c7.1,0,12.6-2.7,16.1-8.1l13.6,9.2
				c-5.8,9.6-16.6,15.3-30.7,15.3c-20.9,0-35.2-14.1-35.2-35.1c0-21.2,14.3-35.4,35.4-35.4c13.2,0,23.8,5.3,29.9,14.5l-13.4,9.6
				C1398.5,806.3,1393.2,803.5,1386.4,803.6z"/>
			<path fill="#1A8D93" d="M1471.4,852.7c-5.1,3-11.6,4.8-18,4.8c-12.3,0-21.7-7.1-21.7-21.3v-32h-9.6v-13.6h9.6v-19h19.6v19h18.8
				v13.7h-18.8v28.5c0,5.8,2.4,8.1,6.7,8c2.6,0,5.7-0.9,9.2-2.6L1471.4,852.7z"/>
		</g>
		<g>
			<g>
				<path fill="#254472" d="M1482.2,846.4c-1.5,0-2.8,0.5-3.9,1.6c-1.1,1.1-1.6,2.4-1.6,4c0,1.6,0.6,3,1.6,4.1
					c1.1,1.1,2.4,1.6,3.9,1.6c1.5,0,2.8-0.5,3.8-1.6c1.1-1.1,1.6-2.4,1.6-4c0-1.6-0.5-3-1.6-4C1485,847,1483.7,846.4,1482.2,846.4z"
					/>
				<path fill="#254472" d="M1522.2,845.1c-1.1,1.7-2.5,3-4.2,3.8c-1.6,0.8-3.5,1.3-5.5,1.3c-2.3,0-4.5-0.5-6.3-1.6
					c-1.8-1-3.3-2.5-4.4-4.4c-1.1-1.9-1.6-4.2-1.6-6.7c0-2.5,0.5-4.7,1.6-6.6c1-1.9,2.5-3.4,4.4-4.4c1.9-1,4-1.6,6.3-1.6
					c2,0,3.9,0.4,5.5,1.3c1.6,0.8,3,2.1,4.2,3.8l0.4,0.6l6.4-4.1l-0.3-0.6c-1.5-2.7-3.7-4.8-6.6-6.3c-2.8-1.4-6-2.2-9.5-2.2
					c-4,0-7.6,0.9-10.7,2.6c-3.1,1.7-5.6,4.1-7.4,7.1c-1.8,3-2.7,6.5-2.7,10.3c0,3.8,0.9,7.3,2.7,10.3c1.8,3,4.3,5.4,7.4,7.2
					c3.1,1.7,6.7,2.6,10.7,2.6c3.5,0,6.7-0.7,9.5-2.2c2.8-1.5,5-3.6,6.5-6.3l0.3-0.6l-6.4-4L1522.2,845.1z"/>
				<path fill="#254472" d="M1563.1,820.1c-3.1-1.7-6.6-2.6-10.5-2.6c-3.9,0-7.4,0.9-10.5,2.6c-3.1,1.7-5.6,4.1-7.3,7.1
					c-1.7,3-2.6,6.5-2.6,10.3c0,3.8,0.9,7.3,2.6,10.3c1.7,3,4.2,5.4,7.3,7.2c3.1,1.7,6.6,2.6,10.5,2.6c3.9,0,7.4-0.9,10.5-2.6
					c3.1-1.7,5.5-4.1,7.3-7.2c1.7-3,2.6-6.5,2.6-10.3c0-3.8-0.9-7.3-2.6-10.3C1568.7,824.2,1566.2,821.8,1563.1,820.1z
					 M1558.8,848.6c-1.8,1-3.9,1.6-6.2,1.6c-2.3,0-4.4-0.5-6.2-1.6c-1.8-1-3.3-2.5-4.3-4.4c-1.1-1.9-1.6-4.1-1.6-6.6
					c0-2.5,0.5-4.7,1.6-6.6c1-1.9,2.5-3.4,4.3-4.4c1.8-1,3.9-1.5,6.2-1.5c2.3,0,4.4,0.5,6.2,1.5c1.8,1,3.2,2.5,4.3,4.4
					c1,1.9,1.6,4.1,1.6,6.6c0,2.5-0.5,4.7-1.6,6.6C1562.1,846.1,1560.6,847.6,1558.8,848.6z"/>
				<path fill="#254472" d="M1582.7,846.4c-1.5,0-2.8,0.5-3.9,1.6c-1.1,1.1-1.6,2.4-1.6,4c0,1.6,0.6,3,1.6,4.1
					c1.1,1.1,2.4,1.6,3.9,1.6c1.5,0,2.8-0.5,3.8-1.6c1.1-1.1,1.6-2.4,1.6-4c0-1.6-0.5-3-1.6-4C1585.6,847,1584.3,846.4,1582.7,846.4
					z"/>
				<path fill="#254472" d="M1624.3,838.2c0,3.8-1,6.7-2.9,8.8c-1.9,2-4.7,3.1-8.1,3.1c-3.1,0-5.4-0.9-7-2.6
					c-1.6-1.7-2.4-4.4-2.4-7.8v-21.7h-8.3v22.5c0,5.6,1.5,9.9,4.6,12.8c3,2.9,7.2,4.4,12.4,4.4c2.8,0,5.4-0.6,7.7-1.7
					c1.7-0.8,3.2-1.9,4.4-3.2v4.4h8v-39.3h-8.3V838.2z"/>
				<polygon fill="#254472" points="1666,834.4 1682.7,817.9 1672.4,817.9 1652.7,835.9 1652.7,802.8 1644.4,802.8 1644.4,857.2 
					1652.7,857.2 1652.7,846.5 1659.8,839.9 1673.7,857.2 1684,857.2 				"/>
			</g>
		</g>
	</g>
</g>
<text transform="matrix(1 0 0 1 -1920.6385 877.6046)" fill="#EE2C24" font-family="'Montserrat-SemiBold'" font-size="133">completemyproject</text>
<text transform="matrix(1 0 0 1 -579.4253 877.605)" fill="#EE2C24" stroke="#EE2C24" stroke-width="1.5" stroke-miterlimit="10" font-family="'Montserrat-Medium'" font-size="74">.co.uk</text>
<text transform="matrix(1 0 0 1 -1403.4253 1166.2716)" fill="#EE2C24" font-family="'Montserrat-Medium'" font-size="74">.co.uk</text>
</svg>
